<?xml version="1.0" encoding="UTF-8"?>
<svg version="1.1" xmlns="http://www.w3.org/2000/svg" width="512" height="512">
<path d="M0 0 C0.97040726 0.01110306 1.94081451 0.02220612 2.94062805 0.03364563 C4.04154282 0.03402328 5.14245758 0.03440094 6.2767334 0.03479004 C7.4643074 0.06059647 8.65188141 0.08640289 9.8754425 0.11299133 C11.70024895 0.12360344 11.70024895 0.12360344 13.56192017 0.13442993 C17.45480853 0.16246126 21.34626871 0.22522132 25.23872375 0.28877258 C27.87477072 0.3138439 30.51084019 0.33665909 33.14692688 0.35713196 C39.6155147 0.41231693 46.08326722 0.49603232 52.55122375 0.60127258 C55.02417218 5.03414837 56.1104684 8.81260606 56.80513 13.82783508 C57.02107646 15.20317478 57.2392425 16.57816749 57.45942688 17.95283508 C57.79419806 20.0947803 58.11488312 22.23506979 58.39814758 24.38447571 C59.2598681 32.81960972 59.2598681 32.81960972 63.82026672 39.52217102 C67.52574865 41.16157022 70.05571756 42.03138365 74.02656555 40.88935852 C76.88445268 39.43125848 79.42181985 37.75657494 82.04341125 35.90596008 C83.07852844 35.1905304 84.11364563 34.47510071 85.18013 33.73799133 C87.34261604 32.23127724 89.49891183 30.71563922 91.64888 29.19111633 C92.68657532 28.47826477 93.72427063 27.76541321 94.79341125 27.03096008 C95.73039856 26.37337708 96.66738586 25.71579407 97.63276672 25.0382843 C101.45489012 23.15631857 103.3315957 22.80516924 107.55122375 23.60127258 C110.76368736 25.80052483 113.39484489 28.4878236 116.1098175 31.26533508 C117.29354698 32.44257645 117.29354698 32.44257645 118.50119019 33.64360046 C120.16272001 35.3047493 121.81554726 36.97464223 123.4601593 38.65254211 C125.98165877 41.2190814 128.5359998 43.74912811 131.09614563 46.27705383 C132.70695141 47.89607899 134.31574626 49.51710788 135.9223175 51.14033508 C136.68781418 51.89682343 137.45331085 52.65331177 138.24200439 53.432724 C143.34143212 58.69387076 143.34143212 58.69387076 144.27632141 62.73750305 C143.34588579 66.41225382 141.78709476 68.79961601 139.5785675 71.88252258 C138.753594 73.06604405 137.92872744 74.24964006 137.10395813 75.43330383 C135.79635035 77.27334924 134.48307012 79.10914404 133.16621399 80.94258118 C131.89319494 82.72523671 130.64167164 84.52160279 129.3910675 86.32002258 C128.63172913 87.38156555 127.87239075 88.44310852 127.09004211 89.53681946 C125.2670216 93.16724204 125.4657924 94.75635127 126.55122375 98.60127258 C126.72782532 99.29994446 126.90442688 99.99861633 127.08638 100.71846008 C127.26040344 101.29853821 127.43442688 101.87861633 127.61372375 102.47627258 C128.07778625 104.02314758 128.07778625 104.02314758 128.55122375 105.60127258 C129.24602844 105.69924133 129.94083313 105.79721008 130.6566925 105.89814758 C134.29379957 106.43288069 137.92324273 107.00840356 141.55122375 107.60127258 C142.4132843 107.7408136 143.27534485 107.88035461 144.16352844 108.02412415 C146.98374731 108.48971233 149.79868943 108.98037237 152.61372375 109.47627258 C153.52984436 109.62548157 154.44596497 109.77469055 155.3898468 109.92842102 C156.25907776 110.08600891 157.12830872 110.2435968 158.02388 110.40596008 C158.7999762 110.53986145 159.57607239 110.67376282 160.37568665 110.8117218 C163.26661237 111.86090301 164.58593395 113.24525254 166.55122375 115.60127258 C167.05915833 118.02949524 167.05915833 118.02949524 167.06880188 120.76533508 C167.08141052 121.79320129 167.09401917 122.8210675 167.10700989 123.88008118 C167.0948645 125.53644592 167.0948645 125.53644592 167.08247375 127.22627258 C167.08630066 128.36532043 167.09012756 129.50436829 167.09407043 130.67793274 C167.0967915 133.08533106 167.08941686 135.49275884 167.07270813 137.90010071 C167.05130301 141.58761941 167.07250508 145.27318958 167.09809875 148.96064758 C167.09545552 151.29919356 167.09033062 153.63773831 167.08247375 155.97627258 C167.09057068 157.08051575 167.0986676 158.18475891 167.10700989 159.32246399 C167.08809692 160.86426331 167.08809692 160.86426331 167.06880188 162.43721008 C167.06561951 163.34003723 167.06243713 164.24286438 167.05915833 165.17304993 C166.38723785 168.38522056 165.07816625 169.56955609 162.55122375 171.60127258 C159.4066925 172.6061554 159.4066925 172.6061554 155.73872375 173.30439758 C155.08798889 173.43191406 154.43725403 173.55943054 153.76679993 173.69081116 C151.6974192 174.09214297 149.62465303 174.47148126 147.55122375 174.85127258 C146.15773575 175.12077096 144.7645027 175.39159126 143.37153625 175.66377258 C133.27825967 177.60127258 133.27825967 177.60127258 128.55122375 177.60127258 C128.42747375 178.32314758 128.30372375 179.04502258 128.17622375 179.78877258 C127.55122375 182.60127258 127.55122375 182.60127258 126.42622375 185.10127258 C125.34625508 188.18689736 125.65056184 189.47271705 126.55122375 192.60127258 C128.11482049 195.43463665 128.11482049 195.43463665 130.11372375 198.30439758 C130.82786438 199.36658508 131.542005 200.42877258 132.27778625 201.52314758 C133.03552328 202.63257414 133.79333667 203.74194853 134.55122375 204.85127258 C135.30975398 205.97578878 136.0675741 207.10078433 136.82466125 208.22627258 C139.90442325 213.13757404 139.90442325 213.13757404 143.55122375 217.60127258 C144.05122375 220.16377258 144.05122375 220.16377258 143.55122375 223.60127258 C141.5167461 226.56777534 139.23767355 229.20656395 136.55122375 231.60127258 C135.89122375 231.60127258 135.23122375 231.60127258 134.55122375 231.60127258 C134.55122375 232.26127258 134.55122375 232.92127258 134.55122375 233.60127258 C132.93019407 235.31235947 131.25618912 236.97380564 129.55122375 238.60127258 C128.46841125 239.74596008 128.46841125 239.74596008 127.36372375 240.91377258 C125.55122375 242.60127258 125.55122375 242.60127258 123.55122375 242.60127258 C123.28309875 243.19939758 123.01497375 243.79752258 122.73872375 244.41377258 C121.55204969 246.59975112 120.45523263 248.01459852 118.55122375 249.60127258 C117.89122375 249.60127258 117.23122375 249.60127258 116.55122375 249.60127258 C116.22122375 250.59127258 115.89122375 251.58127258 115.55122375 252.60127258 C113.73872375 254.39033508 113.73872375 254.39033508 111.55122375 256.22627258 C110.46841125 257.14279602 110.46841125 257.14279602 109.36372375 258.07783508 C108.76559875 258.58056946 108.16747375 259.08330383 107.55122375 259.60127258 C107.22122375 259.93127258 106.89122375 260.26127258 106.55122375 260.60127258 C98.39851478 260.77850539 92.85508907 255.02576498 86.7660675 250.18086243 C79.31284768 243.80285217 79.31284768 243.80285217 70.2191925 241.85908508 C67.46432641 242.89170855 65.07747996 244.10740356 62.55122375 245.60127258 C61.89122375 245.60127258 61.23122375 245.60127258 60.55122375 245.60127258 C60.48318542 246.57483704 60.48318542 246.57483704 60.41377258 247.56806946 C59.83581031 254.86346786 58.70145929 261.93431308 57.23872375 269.10127258 C57.03827454 270.17119446 56.83782532 271.24111633 56.63130188 272.34346008 C56.42311829 273.36697571 56.21493469 274.39049133 56.0004425 275.44502258 C55.81828186 276.36476868 55.63612122 277.28451477 55.44844055 278.23213196 C54.3571226 281.11380528 53.17471323 282.05148679 50.55122375 283.60127258 C49.56315735 283.79076477 49.56315735 283.79076477 48.55513 283.98408508 C45.49900015 284.92534925 44.39602362 286.95934977 42.48872375 289.47627258 C30.94782359 304.03933973 30.94782359 304.03933973 23.78681946 308.21211243 C17.76539529 311.78519903 17.76539529 311.78519903 14.60395813 317.7660675 C14.31303814 321.50392509 14.32995329 325.10581989 14.48872375 328.85127258 C14.52628739 331.3563783 14.55631573 333.86160907 14.5785675 336.36689758 C14.59298889 337.58087219 14.60741028 338.7948468 14.62226868 340.04560852 C14.36545978 352.89840843 10.43088966 364.37129562 1.54341125 373.85127258 C-3.74764577 378.49910307 -11.21573593 383.60127258 -18.44877625 383.60127258 C-18.42782898 384.48798645 -18.40688171 385.37470032 -18.38529968 386.2882843 C-18.31652982 389.62449337 -18.26669241 392.95993353 -18.22904968 396.29658508 C-18.20911436 397.73192846 -18.1819555 399.16719256 -18.14701843 400.60224915 C-17.90022919 411.01094826 -18.34295817 420.10481154 -25.44877625 428.35127258 C-33.62689037 435.8375289 -43.19560145 438.7396789 -53.9839325 438.83955383 C-54.81783005 438.84762558 -55.6517276 438.85569733 -56.51089478 438.86401367 C-58.27687011 438.87782895 -60.04287186 438.88856251 -61.80888367 438.8964386 C-63.5980269 438.90791472 -65.38713708 438.92829671 -67.17607117 438.95796204 C-80.91873992 439.18562864 -92.94440598 438.59996201 -103.44877625 428.60127258 C-109.58931479 421.88634068 -111.72287478 415.53375192 -111.64408875 406.35517883 C-111.64125885 405.69920212 -111.63842896 405.0432254 -111.63551331 404.36737061 C-111.62443608 402.29930849 -111.59935687 400.23170085 -111.57377625 398.16377258 C-111.56373026 396.75036744 -111.55460726 395.33695541 -111.5464325 393.92353821 C-111.52453809 390.48263864 -111.49009676 387.04200007 -111.44877625 383.60127258 C-112.38358826 383.45810608 -113.31840027 383.31493958 -114.28153992 383.16743469 C-124.30238133 381.37615039 -131.58654215 374.53946886 -137.44877625 366.60127258 C-145.13094159 355.01228476 -144.75230197 341.70322612 -144.07377625 328.28877258 C-144.01531982 326.95093234 -143.95802263 325.61304093 -143.90190125 324.27510071 C-143.76217722 321.04980452 -143.61096542 317.8255036 -143.44877625 314.60127258 C-144.58403748 314.18591248 -144.58403748 314.18591248 -145.74223328 313.76216125 C-148.19450268 312.71033544 -149.76336089 311.75448301 -151.75346375 310.02705383 C-152.62333923 309.27851135 -152.62333923 309.27851135 -153.51078796 308.5148468 C-154.1090741 307.98649231 -154.70736023 307.45813782 -155.32377625 306.91377258 C-156.25794373 306.09803772 -156.25794373 306.09803772 -157.21098328 305.26582336 C-185.45478237 280.44237425 -202.10888403 245.98634 -204.66020203 208.49433899 C-205.84430283 181.61652387 -200.53300548 156.16352279 -187.44877625 132.60127258 C-186.9795575 131.72728821 -186.51033875 130.85330383 -186.02690125 129.95283508 C-167.8657594 97.79693099 -137.69968021 75.52465073 -102.57377625 65.16377258 C-99.34847877 64.26951957 -96.79294224 63.60127258 -93.44877625 63.60127258 C-93.35009247 62.85424576 -93.25140869 62.10721893 -93.1497345 61.33755493 C-92.35958281 58.25309434 -91.4401545 57.07256651 -89.23344421 54.820755 C-88.55538727 54.12040634 -87.87733032 53.42005768 -87.1787262 52.69848633 C-86.44026459 51.95871048 -85.70180298 51.21893463 -84.94096375 50.45674133 C-83.80269638 49.30206108 -83.80269638 49.30206108 -82.64143372 48.12405396 C-81.03424921 46.50101254 -79.42170614 44.88326237 -77.804245 43.27046204 C-75.33435528 40.79935682 -72.89523206 38.30043661 -70.45658875 35.79853821 C-68.89067583 34.22448441 -67.32302334 32.65215888 -65.75346375 31.08174133 C-65.02714752 30.33184433 -64.3008313 29.58194733 -63.55250549 28.80932617 C-58.41795488 23.76599364 -58.41795488 23.76599364 -53.71684265 22.96699524 C-50.41396332 23.60802919 -48.56672831 24.32379683 -45.85502625 26.26924133 C-45.05194031 26.83320618 -44.24885437 27.39717102 -43.4214325 27.97822571 C-42.19746765 28.87444641 -42.19746765 28.87444641 -40.94877625 29.78877258 C-39.7248114 30.65598938 -39.7248114 30.65598938 -38.47612 31.54072571 C-35.42139882 33.71041129 -32.3855405 35.90254494 -29.38212585 38.14277649 C-26.0543002 40.81456285 -26.0543002 40.81456285 -22.01127625 41.60127258 C-21.16565125 41.27127258 -20.32002625 40.94127258 -19.44877625 40.60127258 C-18.144245 40.41306946 -16.83971375 40.22486633 -15.49565125 40.03096008 C-13.24980766 39.32706978 -13.24980766 39.32706978 -11.44877625 37.60127258 C-9.552269 32.4490084 -8.88330772 27.14651198 -8.13627625 21.72627258 C-7.80332663 19.51351982 -7.46003183 17.30293817 -7.10620117 15.09342957 C-6.78891779 13.08488348 -6.50028076 11.07187422 -6.21318054 9.05879211 C-4.45210417 1.09316977 -4.45210417 1.09316977 0 0 Z M6.55122375 12.60127258 C5.27887373 17.05449768 4.18481366 21.14393962 3.36763 25.64814758 C3.16202454 26.73998352 2.95641907 27.83181946 2.74458313 28.95674133 C2.32133196 31.23417331 1.90474474 33.51285309 1.49458313 35.79267883 C1.2876886 36.87935852 1.08079407 37.96603821 0.86763 39.08564758 C0.59608093 40.566297 0.59608093 40.566297 0.31904602 42.07685852 C-0.72895267 45.52242497 -2.13622021 46.88670409 -5.25468445 48.58442688 C-7.41931524 49.49706341 -9.5853803 50.40325503 -11.76127625 51.28877258 C-12.50828796 51.60910461 -13.25529968 51.92943665 -14.02494812 52.25947571 C-18.27834932 54.0108762 -21.77747396 55.25446316 -26.44877625 54.60127258 C-28.91362 53.42158508 -28.91362 53.42158508 -31.38627625 51.72627258 C-32.3195575 51.09849915 -33.25283875 50.47072571 -34.21440125 49.82392883 C-35.281745 49.09045227 -36.34908875 48.35697571 -37.44877625 47.60127258 C-38.79616746 46.70178525 -40.14521157 45.80477037 -41.49565125 44.90986633 C-45.15439287 42.48503135 -48.8034606 40.04624138 -52.44877625 37.60127258 C-56.35728823 39.18558711 -58.9724498 41.86762353 -61.87065125 44.82783508 C-62.62792511 45.58935379 -62.62792511 45.58935379 -63.40049744 46.36625671 C-65.00469721 47.981611 -66.6017848 49.60379468 -68.19877625 51.22627258 C-69.28815732 52.32568956 -70.37799614 53.42465317 -71.4683075 54.52314758 C-74.13379509 57.21063278 -76.79292768 59.9042628 -79.44877625 62.60127258 C-78.21841717 65.93009747 -76.85567205 68.69486865 -74.76908875 71.56221008 C-74.25217468 72.28150696 -73.73526062 73.00080383 -73.2026825 73.74189758 C-72.3963739 74.84791321 -72.3963739 74.84791321 -71.57377625 75.97627258 C-61.48822852 89.86537237 -61.48822852 89.86537237 -61.38627625 94.35127258 C-62.69830975 98.36455154 -64.37433756 102.11345763 -66.2183075 105.90986633 C-67.25355011 108.17425414 -67.87792714 110.21481315 -68.51127625 112.60127258 C-70.76980358 116.09834717 -71.43971011 116.25045787 -75.32377625 117.28877258 C-76.98925658 117.61940431 -78.65586943 117.94598517 -80.32914734 118.23457336 C-83.81069212 118.83688623 -87.27792185 119.51440902 -90.74809265 120.17866516 C-92.66423634 120.54197119 -94.58189884 120.89736145 -96.50102234 121.24458313 C-97.38483582 121.40611877 -98.26864929 121.56765442 -99.179245 121.73408508 C-100.37650208 121.94895569 -100.37650208 121.94895569 -101.59794617 122.16816711 C-103.45426372 122.43096264 -103.45426372 122.43096264 -104.44877625 123.60127258 C-104.5373627 126.34021343 -104.56401103 129.05380528 -104.5464325 131.79267883 C-104.54501755 132.61251755 -104.5436026 133.43235626 -104.54214478 134.27703857 C-104.53652914 136.90598641 -104.52397404 139.53485032 -104.51127625 142.16377258 C-104.50626326 143.94176615 -104.5017 145.71976104 -104.49760437 147.49775696 C-104.48655463 151.86562803 -104.46927956 156.23343606 -104.44877625 160.60127258 C-103.17904968 160.8552179 -101.90932312 161.10916321 -100.60112 161.37080383 C-98.86283875 161.71846008 -97.1245575 162.06611633 -95.38627625 162.41377258 C-94.03517761 162.68399231 -94.03517761 162.68399231 -92.65678406 162.95967102 C-89.11430359 163.66816711 -85.57182312 164.37666321 -82.02934265 165.0851593 C-81.28732605 165.23356262 -80.54530945 165.38196594 -79.7808075 165.53486633 C-79.08672791 165.67368225 -78.39264832 165.81249817 -77.67753601 165.95552063 C-77.02454529 166.08611877 -76.37155457 166.21671692 -75.69877625 166.35127258 C-73.88119812 166.71478821 -73.88119812 166.71478821 -72.02690125 167.08564758 C-71.17612 167.25580383 -70.32533875 167.42596008 -69.44877625 167.60127258 C-69.29022156 168.1955304 -69.13166687 168.78978821 -68.9683075 169.40205383 C-67.31335451 175.28125145 -65.16240834 180.5417719 -62.33940125 185.96064758 C-61.20346774 189.32859079 -61.46707393 191.19863018 -62.44877625 194.60127258 C-64.0151825 197.17158508 -64.0151825 197.17158508 -66.01127625 199.72627258 C-69.07643152 203.77804203 -72.07716261 207.8465238 -74.94877625 212.03877258 C-75.954245 213.49090149 -75.954245 213.49090149 -76.98002625 214.97236633 C-78.77393234 217.68137169 -78.77393234 217.68137169 -78.44877625 221.60127258 C-76.80540825 223.6543575 -75.19717773 225.43725924 -73.33940125 227.27705383 C-72.81618286 227.80647079 -72.29296448 228.33588776 -71.75389099 228.88134766 C-70.64580928 229.99652823 -69.53256367 231.10659804 -68.41459656 232.21186829 C-66.70310071 233.90948319 -65.01696593 235.62972339 -63.33158875 237.35322571 C-62.25231131 238.43345416 -61.17162779 239.51227996 -60.08940125 240.58955383 C-59.58507568 241.1071376 -59.08075012 241.62472137 -58.56114197 242.1579895 C-56.97622731 243.75844874 -56.97622731 243.75844874 -54.44877625 245.60127258 C-50.15136888 245.48670117 -46.70913122 242.28511295 -43.26127625 239.91377258 C-42.59362244 239.4640509 -41.92596863 239.01432922 -41.23808289 238.55097961 C-38.3548804 236.60603134 -35.49832386 234.63693291 -32.67533875 232.60517883 C-31.54225281 231.79887024 -31.54225281 231.79887024 -30.38627625 230.97627258 C-29.75592468 230.50963196 -29.12557312 230.04299133 -28.47612 229.56221008 C-25.05463928 227.94046778 -22.09720242 228.04700465 -18.51737976 229.25068665 C-16.40213359 230.12470949 -14.33177774 231.06363317 -12.26127625 232.03877258 C-6.93509114 234.51581348 -6.93509114 234.51581348 -1.44877625 236.60127258 C-0.6401825 238.58564758 -0.6401825 238.58564758 -0.01127625 241.35127258 C0.23235657 242.41603821 0.47598938 243.48080383 0.727005 244.57783508 C1.97914652 250.55389432 3.09895005 256.55848651 4.19355774 262.56513977 C4.35541565 263.44589172 4.51727356 264.32664368 4.68403625 265.23408508 C4.89890686 266.42348694 4.89890686 266.42348694 5.11811829 267.63691711 C5.48153444 269.6653477 5.48153444 269.6653477 6.55122375 271.60127258 C18.76122375 271.60127258 30.97122375 271.60127258 43.55122375 271.60127258 C45.44111016 261.95449094 45.44111016 261.95449094 47.32026672 252.30561829 C47.55890442 251.09994202 47.79754211 249.89426575 48.04341125 248.65205383 C48.28430481 247.42140198 48.52519836 246.19075012 48.77339172 244.92280579 C50.56121077 237.28838076 50.56121077 237.28838076 53.42720032 235.29927063 C54.1745343 234.99029846 54.92186829 234.68132629 55.69184875 234.36299133 C56.92741516 233.845755 56.92741516 233.845755 58.1879425 233.31806946 C59.05032532 232.97840149 59.91270813 232.63873352 60.80122375 232.28877258 C62.07159485 231.75026672 62.07159485 231.75026672 63.36763 231.20088196 C67.95647595 229.3275195 71.51577438 228.08499192 76.55122375 228.60127258 C79.28022766 230.0382843 79.28022766 230.0382843 82.02778625 232.03096008 C83.02809875 232.74381165 84.02841125 233.45666321 85.05903625 234.19111633 C86.08770813 234.9452179 87.11638 235.69931946 88.17622375 236.47627258 C90.22943313 237.95488978 92.28406326 239.43153662 94.34028625 240.90596008 C95.24472473 241.56579895 96.14916321 242.22563782 97.08100891 242.9054718 C99.71905602 244.79979096 99.71905602 244.79979096 103.55122375 246.60127258 C112.13122375 238.02127258 120.71122375 229.44127258 129.55122375 220.60127258 C124.58004607 212.76742298 124.58004607 212.76742298 119.42622375 205.05439758 C118.94798157 204.35443665 118.46973938 203.65447571 117.977005 202.93330383 C117.00917626 201.52000871 116.02682311 200.11657244 115.0316925 198.72236633 C112.67088643 195.21692702 111.55040352 193.35014779 111.55513 189.03486633 C112.62618854 185.34286457 113.92259849 181.92510967 115.48872375 178.41377258 C116.01337219 177.2239679 116.53802063 176.03416321 117.0785675 174.80830383 C117.56454407 173.74998352 118.05052063 172.69166321 118.55122375 171.60127258 C118.85564392 170.57151306 118.85564392 170.57151306 119.16621399 169.52095032 C121.3854945 166.44494069 124.64644898 166.31801378 128.18403625 165.67939758 C129.18358337 165.47902893 129.18358337 165.47902893 130.20332336 165.27461243 C132.69061847 164.78127865 135.1838124 164.31807108 137.67622375 163.85127258 C143.24497375 162.77877258 148.81372375 161.70627258 154.55122375 160.60127258 C154.55122375 148.39127258 154.55122375 136.18127258 154.55122375 123.60127258 C150.09532028 122.32815731 146.04426985 121.24629845 141.539505 120.45283508 C140.45218079 120.25174133 139.36485657 120.05064758 138.24458313 119.84346008 C135.98069579 119.43017967 133.71501504 119.02661138 131.44770813 118.63252258 C129.82252258 118.32701477 129.82252258 118.32701477 128.164505 118.01533508 C127.18264221 117.83953918 126.20077942 117.66374329 125.18916321 117.48262024 C122.03623975 116.42921407 120.65278447 115.14907113 118.55122375 112.60127258 C117.3609856 110.15668508 116.32801094 107.81595639 115.36372375 105.28877258 C115.10397766 104.65004211 114.84423157 104.01131165 114.57661438 103.35322571 C112.92277545 99.13529541 111.61303623 95.17539594 111.55122375 90.60127258 C112.92704806 87.90608329 114.20904979 85.80384627 115.98872375 83.41377258 C116.91217323 82.10667332 117.83534619 80.79937865 118.758255 79.49189758 C119.22570129 78.84414368 119.69314758 78.19638977 120.17475891 77.52900696 C122.2504392 74.62202371 124.20873257 71.6450339 126.17622375 68.66377258 C127.30122375 66.97627258 128.42622375 65.28877258 129.55122375 63.60127258 C128.60005241 62.42875948 127.64005367 61.26340243 126.67622375 60.10127258 C126.14255188 59.45158508 125.60888 58.80189758 125.05903625 58.13252258 C124.56145813 57.62721008 124.06388 57.12189758 123.55122375 56.60127258 C122.89122375 56.60127258 122.23122375 56.60127258 121.55122375 56.60127258 C121.55122375 55.94127258 121.55122375 55.28127258 121.55122375 54.60127258 C120.89122375 54.60127258 120.23122375 54.60127258 119.55122375 54.60127258 C119.55122375 53.94127258 119.55122375 53.28127258 119.55122375 52.60127258 C118.89122375 52.60127258 118.23122375 52.60127258 117.55122375 52.60127258 C117.55122375 51.94127258 117.55122375 51.28127258 117.55122375 50.60127258 C115.90770918 49.23950337 114.23599719 47.91165192 112.55122375 46.60127258 C110.86410952 44.95530748 109.19666156 43.2889011 107.55122375 41.60127258 C106.78809875 40.83814758 106.02497375 40.07502258 105.23872375 39.28877258 C104.68184875 38.73189758 104.12497375 38.17502258 103.55122375 37.60127258 C99.05286117 39.11766976 95.51529538 41.61756353 91.73872375 44.41377258 C90.49224906 45.31478785 89.24485931 46.21453864 87.99653625 47.11299133 C86.03221658 48.53119398 84.06868344 49.95045911 82.10591125 51.37080383 C81.44848938 51.81810852 80.7910675 52.26541321 80.11372375 52.72627258 C79.57876282 53.10010071 79.04380188 53.47392883 78.49263 53.85908508 C74.1476652 55.52013803 70.28480988 54.84927927 65.98091125 53.39424133 C64.80786438 52.86443665 63.6348175 52.33463196 62.42622375 51.78877258 C61.24802063 51.26670227 60.0698175 50.74463196 58.85591125 50.20674133 C57.76536438 49.67693665 56.6748175 49.14713196 55.55122375 48.60127258 C54.26610901 48.01793152 54.26610901 48.01793152 52.95503235 47.42280579 C49.62874189 44.90224382 49.51300812 42.91362357 48.78559875 38.85127258 C48.60000397 37.86949036 48.60000397 37.86949036 48.41065979 36.86787415 C48.02070005 34.78212104 47.660358 32.69253149 47.30122375 30.60127258 C46.92120232 28.51163571 46.53530105 26.42314386 46.14894104 24.33467102 C45.8020089 22.44085163 45.46875385 20.54454194 45.13618469 18.64814758 C44.61536955 15.57423039 44.61536955 15.57423039 43.55122375 12.60127258 C31.34122375 12.60127258 19.13122375 12.60127258 6.55122375 12.60127258 Z M-148.44877625 103.60127258 C-149.00822937 104.03955383 -149.5676825 104.47783508 -150.14408875 104.92939758 C-154.49332978 108.3450319 -157.9548623 112.34781212 -161.44877625 116.60127258 C-162.22479187 117.53971008 -163.0008075 118.47814758 -163.80033875 119.44502258 C-180.27359466 139.83035453 -191.8699637 166.09992675 -192.44877625 192.60127258 C-192.48744812 193.56162415 -192.52612 194.52197571 -192.56596375 195.51142883 C-193.38649957 232.29878508 -179.41149412 264.05804743 -154.44877625 290.60127258 C-153.91123718 291.20326477 -153.37369812 291.80525696 -152.81987 292.42549133 C-148.47210263 297.1001585 -143.40267529 300.63197209 -138.15898132 304.22627258 C-133.54623682 307.40635144 -133.54623682 307.40635144 -132.44877625 309.60127258 C-132.11877625 316.20127258 -131.78877625 322.80127258 -131.44877625 329.60127258 C-87.55877625 329.60127258 -43.66877625 329.60127258 1.55122375 329.60127258 C1.88122375 323.00127258 2.21122375 316.40127258 2.55122375 309.60127258 C5.28515409 306.86734225 7.64134334 304.68153378 10.67622375 302.41377258 C18.02224413 296.76485263 24.72115492 290.80616261 30.55122375 283.60127258 C29.62785217 283.58145325 28.70448059 283.56163391 27.75312805 283.54121399 C24.32561201 283.4630952 20.89853577 283.37640262 17.47138977 283.28388977 C15.98840163 283.24561911 14.50532128 283.2107628 13.02217102 283.17939758 C10.88959303 283.13370458 8.75764885 283.0757192 6.6254425 283.01533508 C5.34242249 282.98391418 4.05940247 282.95249329 2.73750305 282.92012024 C-0.44877625 282.60127258 -0.44877625 282.60127258 -3.44877625 280.60127258 C-4.21659851 278.32978821 -4.21659851 278.32978821 -4.7651825 275.50752258 C-4.97207703 274.47627258 -5.17897156 273.44502258 -5.39213562 272.38252258 C-5.59645203 271.29971008 -5.80076843 270.21689758 -6.01127625 269.10127258 C-6.32355164 267.52346008 -6.32355164 267.52346008 -6.64213562 265.91377258 C-7.44761799 261.83333525 -8.24437021 257.75291908 -8.97123718 253.65766907 C-9.21728699 252.31297546 -9.21728699 252.31297546 -9.4683075 250.94111633 C-9.67677307 249.75183533 -9.67677307 249.75183533 -9.88945007 248.53852844 C-10.3333875 246.36722544 -10.3333875 246.36722544 -12.57377625 244.66377258 C-13.52252625 244.31314758 -14.47127625 243.96252258 -15.44877625 243.60127258 C-16.03554138 243.30116272 -16.62230652 243.00105286 -17.22685242 242.69184875 C-19.32799199 241.69895061 -21.15543054 241.00113394 -23.44877625 240.60127258 C-26.38231151 241.88529019 -28.18341814 242.93654826 -30.63627625 244.85127258 C-31.27629578 245.31058167 -31.91631531 245.76989075 -32.57572937 246.24311829 C-34.55537463 247.66849218 -36.50423355 249.12846245 -38.44877625 250.60127258 C-40.22249027 251.93874247 -41.99878288 253.26997841 -43.79374695 254.57881165 C-45.36141058 255.72490118 -46.90590421 256.90248888 -48.44877625 258.08174133 C-52.46996854 260.11851712 -54.10238067 259.7965522 -58.44877625 258.60127258 C-61.45966888 256.47276008 -63.98377246 253.93123173 -66.56987 251.31221008 C-67.31463089 250.57556122 -68.05939178 249.83891235 -68.82672119 249.0799408 C-70.39301709 247.52209079 -71.95171945 245.95657344 -73.5032196 244.38398743 C-75.88027213 241.98233882 -78.28997608 239.61738141 -80.70463562 237.25361633 C-82.22430888 235.73357265 -83.74195852 234.2115026 -85.25737 232.68721008 C-86.33999367 231.63054642 -86.33999367 231.63054642 -87.44448853 230.55253601 C-90.66017815 227.24480223 -92.30213371 225.51392707 -93.04911804 220.86494446 C-92.46503874 217.6896813 -91.87229604 215.90795333 -90.03471375 213.29658508 C-89.52037781 212.54763977 -89.00604187 211.79869446 -88.47612 211.02705383 C-87.93084656 210.26779602 -87.38557312 209.50853821 -86.82377625 208.72627258 C-86.30170593 207.97474915 -85.77963562 207.22322571 -85.241745 206.44892883 C-83.08397981 203.34281253 -80.9236225 200.24408098 -78.67631531 197.20185852 C-78.11911804 196.42358704 -77.56192078 195.64531555 -76.98783875 194.84346008 C-76.4768866 194.14849426 -75.96593445 193.45352844 -75.4394989 192.73750305 C-74.13491347 189.92451081 -74.57820211 188.53439798 -75.44877625 185.60127258 C-75.62835876 184.89599426 -75.80794128 184.19071594 -75.9929657 183.46406555 C-76.89138598 181.09436972 -77.74213842 179.49111465 -79.44877625 177.60127258 C-83.39364494 175.91835238 -87.40930212 175.34021926 -91.63627625 174.72627258 C-93.83817722 174.35433858 -96.04000153 173.9819504 -98.241745 173.60908508 C-99.29539246 173.44054016 -100.34903992 173.27199524 -101.43461609 173.0983429 C-112.83112348 171.21892535 -112.83112348 171.21892535 -115.44877625 168.60127258 C-115.70947266 166.32417297 -115.70947266 166.32417297 -115.72343445 163.44892883 C-115.73296646 162.37441467 -115.74249847 161.29990051 -115.75231934 160.19282532 C-115.75140793 159.02823792 -115.75049652 157.86365051 -115.7495575 156.66377258 C-115.75384262 155.4727594 -115.75812775 154.28174622 -115.76254272 153.05464172 C-115.76829399 150.53275693 -115.76878046 148.01085553 -115.76445007 145.4889679 C-115.7612893 141.61726278 -115.7847434 137.74632066 -115.81010437 133.87471008 C-115.81237708 131.42939855 -115.81308099 128.98408496 -115.8120575 126.53877258 C-115.82126724 125.37418518 -115.83047699 124.20959778 -115.83996582 123.00971985 C-115.83373703 121.93520569 -115.82750824 120.86069153 -115.8210907 119.75361633 C-115.82172012 118.80478577 -115.82234955 117.8559552 -115.82299805 116.87837219 C-115.69950485 116.12692932 -115.57601166 115.37548645 -115.44877625 114.60127258 C-112.07535108 112.35232248 -109.12848504 111.80633742 -105.22612 111.12861633 C-104.52483475 111.00064163 -103.8235495 110.87266693 -103.10101318 110.74081421 C-100.86390364 110.33352228 -98.62526145 109.93561258 -96.38627625 109.53877258 C-94.14399989 109.13700238 -91.90212228 108.733231 -89.66082764 108.32601929 C-88.26695485 108.07321379 -86.87246413 107.82378741 -85.47732544 107.57806396 C-81.85523576 106.93734734 -81.85523576 106.93734734 -78.44877625 105.60127258 C-77.27457763 103.40286918 -77.27457763 103.40286918 -76.26127625 100.78877258 C-75.89647156 99.91607727 -75.53166687 99.04338196 -75.1558075 98.14424133 C-74.1934005 94.68276644 -74.85013518 92.72246779 -76.52445984 89.58662415 C-77.94676284 87.33425062 -79.37708549 85.08807906 -80.82377625 82.85127258 C-81.31877625 82.05849915 -81.81377625 81.26572571 -82.32377625 80.44892883 C-82.80588562 79.69998352 -83.287995 78.95103821 -83.78471375 78.17939758 C-84.44286072 77.14927551 -84.44286072 77.14927551 -85.11430359 76.0983429 C-85.55467957 75.60430969 -85.99505554 75.11027649 -86.44877625 74.60127258 C-108.13197983 74.60127258 -132.58432265 90.07158763 -148.44877625 103.60127258 Z M-131.44877625 341.60127258 C-131.44877625 351.79738559 -129.20609308 357.46480278 -122.30815125 364.87861633 C-115.72149743 370.98095737 -108.02411918 372.90247434 -99.23124695 372.89179993 C-98.42874008 372.89851715 -97.62623322 372.90523438 -96.79940796 372.91215515 C-94.15772734 372.93108401 -91.51630164 372.93505719 -88.8745575 372.93721008 C-87.02618305 372.94364313 -85.17780961 372.95037186 -83.32943726 372.9573822 C-79.45683942 372.96934333 -75.5843307 372.97306438 -71.7117157 372.97187805 C-66.77359495 372.97167529 -61.83605247 372.99893818 -56.89806843 373.03342247 C-53.07938059 373.05577455 -49.26082989 373.05971301 -45.44208336 373.0586586 C-43.62299298 373.06100358 -41.80389817 373.06976422 -39.98487282 373.08532333 C-27.33011898 373.18340552 -15.89899811 372.89978902 -6.1714325 363.67158508 C-0.65595188 357.04300293 1.55122375 350.10821806 1.55122375 341.60127258 C-42.33877625 341.60127258 -86.22877625 341.60127258 -131.44877625 341.60127258 Z M-99.44877625 384.60127258 C-101.46123742 409.06706221 -101.46123742 409.06706221 -95.44877625 419.60127258 C-93.5992721 421.44693827 -93.5992721 421.44693827 -91.51127625 422.47627258 C-90.86287781 422.84494446 -90.21447937 423.21361633 -89.5464325 423.59346008 C-88.85420593 423.92603821 -88.16197937 424.25861633 -87.44877625 424.60127258 C-86.74196716 424.94513 -86.03515808 425.28898743 -85.30693054 425.64326477 C-81.72334056 426.84442708 -78.35811696 426.92551959 -74.62065125 426.93721008 C-73.49798859 426.94719528 -73.49798859 426.94719528 -72.35264587 426.9573822 C-70.77257227 426.9674774 -69.19245629 426.97220019 -67.61235046 426.97187805 C-65.21985262 426.97623421 -62.82922737 427.01253603 -60.4370575 427.05049133 C-50.79035256 427.12171496 -43.23863208 426.55811001 -35.57377625 420.22627258 C-26.3743635 408.86229213 -30.44877625 402.01896175 -30.44877625 384.60127258 C-53.21877625 384.60127258 -75.98877625 384.60127258 -99.44877625 384.60127258 Z " fill="#000000" transform="translate(332.4487762451172,36.39872741699219)"/>
<path d="M0 0 C14.40152718 11.00286457 24.67449383 24.3690705 27.7734375 42.52734375 C29.78575736 59.8055384 24.93149512 76.07297089 14.30078125 89.7578125 C4.56749953 100.60682486 -8.23935932 108.62174404 -23.09033203 109.97583008 C-41.23445929 110.82255602 -56.73578837 107.65037502 -70.88671875 95.5703125 C-83.7460088 83.36419274 -90.33590977 68.71827874 -91.07421875 51.0703125 C-90.74296014 36.02727452 -85.17563599 20.67680115 -74.76953125 9.6640625 C-67.54327463 3.01045263 -60.14119262 -2.37043508 -50.69921875 -5.2421875 C-49.78785156 -5.53867188 -48.87648438 -5.83515625 -47.9375 -6.140625 C-32.30380747 -10.69088531 -13.77347788 -9.21318352 0 0 Z M-66.5546875 18.91796875 C-76.00257677 31.4291081 -78.91068362 44.32686333 -77.69921875 59.7578125 C-76.10944185 68.33877695 -72.16475778 75.05435224 -66.69921875 81.7578125 C-65.94898438 82.71300781 -65.94898438 82.71300781 -65.18359375 83.6875 C-57.71994586 92.16891806 -45.3715109 97.12735507 -34.28125 97.93359375 C-21.02184861 98.32418077 -9.59414062 94.16739437 0.61328125 85.6328125 C10.48591654 76.17285971 15.25979211 64.40013076 15.73828125 50.8828125 C15.46466773 40.00964906 12.10783834 29.3736019 5.30078125 20.7578125 C4.64078125 20.7578125 3.98078125 20.7578125 3.30078125 20.7578125 C3.04296875 20.15839844 2.78515625 19.55898437 2.51953125 18.94140625 C-1.43919345 11.84869116 -11.7279041 7.25230429 -19.20703125 5.00390625 C-36.61216248 1.10275615 -54.15415767 5.84714001 -66.5546875 18.91796875 Z " fill="#000000" transform="translate(388.69921875,127.2421875)"/>
<path d="M0 0 C5.09526222 1.56280895 9.63258033 4.51817281 14.21679688 7.17993164 C15.89128906 8.13561035 15.89128906 8.13561035 17.59960938 9.1105957 C24.66362728 13.15683566 31.68483111 17.27279122 38.63476562 21.51196289 C41.34902427 23.16522826 44.08436627 24.77866045 46.83007812 26.37915039 C47.61189453 26.83515625 48.39371094 27.29116211 49.19921875 27.76098633 C50.71866897 28.64552797 52.2394431 29.52780048 53.76171875 30.4074707 C58.99703382 33.46016858 58.99703382 33.46016858 61.21679688 35.67993164 C61.46679688 39.17993164 61.46679688 39.17993164 61.21679688 42.67993164 C59.21679688 44.67993164 59.21679688 44.67993164 55.96020508 44.99072266 C51.89018983 44.65281557 49.81026679 43.77240595 46.32226562 41.70727539 C45.21383301 41.06177734 44.10540039 40.4162793 42.96337891 39.7512207 C41.77685908 39.0402232 40.59050216 38.32895379 39.40429688 37.61743164 C38.17192871 36.89297214 36.93867869 36.17001083 35.70458984 35.44848633 C33.15133154 33.95353689 30.60274328 32.45104105 28.05712891 30.94311523 C24.32469603 28.73686107 20.56985304 26.57145025 16.80664062 24.41821289 C16.2159227 24.07986923 15.62520477 23.74152557 15.0165863 23.39292908 C13.2917459 22.40510714 11.56677274 21.41751701 9.84179688 20.42993164 C-7.47228498 10.50904669 -7.47228498 10.50904669 -8.90820312 6.67993164 C-8.78320312 3.67993164 -8.78320312 3.67993164 -7.28320312 1.24243164 C-4.5014904 -0.49613882 -3.17773633 -0.54849845 0 0 Z " fill="#000000" transform="translate(54.783203125,129.320068359375)"/>
<path d="M0 0 C4.54701234 1.1090274 6.73861413 5.30818321 9.11352539 9.10400391 C10.89979859 12.13511175 12.64348149 15.18728239 14.375 18.25 C15.35684466 19.97396237 16.33869826 21.6979197 17.32098389 23.42163086 C18.00513949 24.62313482 18.68843666 25.82512795 19.37091064 27.02758789 C21.53587102 30.83908984 23.72606824 34.63474138 25.93760681 38.41940308 C27.41847552 40.95419741 28.89220535 43.49310652 30.36532593 46.03240967 C31.07554535 47.25296094 31.78874728 48.471782 32.5050354 49.68878174 C33.50933844 51.39687702 34.50101342 53.11237792 35.4921875 54.828125 C36.06179199 55.80426758 36.63139648 56.78041016 37.21826172 57.78613281 C38.65206619 60.81415286 39.31082749 63.28844145 39.5625 66.625 C38 69.0625 38 69.0625 35.5625 70.625 C32.05748764 70.46818531 30.19996772 70.25908527 27.67602539 67.74853516 C27.15516357 66.93690918 26.63430176 66.1252832 26.09765625 65.2890625 C25.51000488 64.3805957 24.92235352 63.47212891 24.31689453 62.53613281 C21.43190068 57.74895404 18.67884694 52.9053097 16 48 C12.27413303 41.23997318 8.52226588 34.50679209 4.578125 27.87109375 C3.93689697 26.79102051 3.29566895 25.71094727 2.63500977 24.59814453 C1.40356148 22.5333434 0.16476802 20.47290045 -1.08227539 18.41748047 C-1.63906982 17.48178223 -2.19586426 16.54608398 -2.76953125 15.58203125 C-3.26171143 14.76710205 -3.7538916 13.95217285 -4.26098633 13.11254883 C-5.62013573 10.23884614 -6.17919842 7.7896707 -6.4375 4.625 C-4.5295955 1.83652419 -3.27198775 0.83897122 0 0 Z " fill="#000000" transform="translate(143.4375,37.375)"/>
<path d="M0 0 C0.68651642 -0.00671722 1.37303284 -0.01343445 2.08035278 -0.02035522 C4.34994746 -0.03935441 6.61924677 -0.04326021 8.88891602 -0.04541016 C10.46688458 -0.05183634 12.04485195 -0.05856456 13.62281799 -0.06558228 C16.93070234 -0.07755952 20.23848221 -0.0812626 23.54638672 -0.08007812 C27.78469455 -0.07987481 32.02233277 -0.10718723 36.26048183 -0.14162254 C39.51958797 -0.16386106 42.77853212 -0.16791663 46.03770638 -0.16685867 C47.60022351 -0.16921884 49.16274484 -0.17806582 50.7251873 -0.19352341 C52.91101864 -0.21312481 55.09539515 -0.20737032 57.28125 -0.1953125 C58.52462631 -0.19816254 59.76800262 -0.20101257 61.04905701 -0.20394897 C64.78340825 0.38109319 65.96583477 1.29938656 68.20532227 4.29052734 C68.68570747 7.1042121 68.71470088 8.52983874 67.1151123 10.91860962 C64.21048049 13.00518238 61.75461516 12.67210941 58.21118164 12.67871094 C57.14973686 12.68659637 57.14973686 12.68659637 56.06684875 12.69464111 C53.7273655 12.70784681 51.38856246 12.69910149 49.04907227 12.68896484 C47.42386749 12.69098543 45.79866359 12.69389673 44.17346191 12.69766235 C40.7671648 12.70208646 37.36110367 12.69565201 33.95483398 12.68164062 C29.58647631 12.66454851 25.21867155 12.67438926 20.85033417 12.69235802 C17.49432197 12.70319362 14.13844106 12.69975058 10.78242493 12.69197464 C9.17165563 12.689972 7.56087444 12.69243414 5.95011902 12.6994133 C3.69957866 12.70702432 1.44993629 12.69542963 -0.80053711 12.67871094 C-2.08166382 12.67632416 -3.36279053 12.67393738 -4.68273926 12.67147827 C-7.79467773 12.29052734 -7.79467773 12.29052734 -9.73962402 10.98892212 C-10.79467773 9.29052734 -10.79467773 9.29052734 -10.66967773 5.72802734 C-9.11669156 -0.37298979 -5.57903698 0.03422902 0 0 Z " fill="#000000" transform="translate(23.794677734375,252.70947265625)"/>
</svg>
